<?xml version="1.0" encoding="iso-8859-1"?>
<svg version="1.1" id="Layer_1" xmlns="http://www.w3.org/2000/svg" xmlns:xlink="http://www.w3.org/1999/xlink" x="0px" y="0px"
	 viewBox="0 0 512 512" style="enable-background:new 0 0 512 512;" xml:space="preserve">
<g>
	<g>
		<path d="M485.445,29.246c-17.123-17.124-39.891-26.555-64.108-26.555s-46.984,9.43-64.108,26.555
			c-3.983,3.983-3.983,10.441,0,14.424l48.924,48.924l-7.247,7.247C361.544,64.652,311.25,43.053,256,43.053
			c-55.25,0-105.544,21.599-142.904,56.786l-7.247-7.247l48.924-48.924c3.983-3.983,3.983-10.441,0-14.424
			C137.648,12.121,114.882,2.691,90.665,2.691s-46.985,9.43-64.108,26.555C9.431,46.369,0,69.137,0,93.354
			s9.431,46.984,26.555,64.108c1.913,1.912,4.507,2.987,7.212,2.987s5.299-1.075,7.212-2.987l50.445-50.446l7.513,7.513
			c-32.076,36.693-51.541,84.678-51.541,137.127c0,77.542,42.531,145.331,105.486,181.282l-58.961,58.961
			c-3.983,3.983-3.983,10.441,0,14.424c1.992,1.992,4.602,2.987,7.212,2.987s5.221-0.996,7.212-2.987l63.716-63.715
			c25.698,11.339,54.091,17.653,83.937,17.653c29.846,0,58.24-6.313,83.937-17.653l63.716,63.715
			c1.992,1.992,4.602,2.987,7.212,2.987c2.61,0,5.22-0.996,7.212-2.987c3.983-3.983,3.983-10.441,0-14.424l-58.961-58.961
			c62.956-35.951,105.486-103.74,105.486-181.282c0-52.45-19.464-100.435-51.541-137.127l7.513-7.513l50.445,50.446
			c1.913,1.912,4.507,2.987,7.212,2.987s5.298-1.075,7.212-2.987C502.569,140.338,512,117.571,512,93.354
			S502.569,46.369,485.445,29.246z M34.283,135.31c-9.011-12.056-13.884-26.632-13.884-41.956c0-18.769,7.309-36.414,20.581-49.685
			c13.27-13.27,30.915-20.579,49.684-20.579c15.323,0,29.899,4.872,41.956,13.884L34.283,135.31z M444.205,251.658
			c0,103.776-84.428,188.205-188.205,188.205S67.795,355.435,67.795,251.658S152.223,63.453,256,63.453
			S444.205,147.881,444.205,251.658z M477.717,135.31l-98.337-98.337c12.057-9.012,26.632-13.884,41.956-13.884
			c18.769,0,36.413,7.309,49.684,20.58c13.271,13.271,20.58,30.916,20.58,49.684C491.602,108.678,486.728,123.254,477.717,135.31z"
			/>
	</g>
</g>
<g>
	<g>
		<path d="M256,83.837c-92.536,0-167.821,75.283-167.821,167.82S163.464,419.477,256,419.477s167.821-75.283,167.821-167.82
			S348.536,83.837,256,83.837z M256,399.079c-81.289,0-147.422-66.133-147.422-147.421S174.711,104.235,256,104.235
			s147.422,66.133,147.422,147.421S337.289,399.079,256,399.079z"/>
	</g>
</g>
<g>
	<g>
		<path d="M256,129.029c-5.632,0-10.199,4.566-10.199,10.199v108.203l-46.613,46.615c-3.983,3.983-3.983,10.441,0,14.424
			c1.992,1.992,4.602,2.987,7.212,2.987s5.22-0.996,7.212-2.987l48.498-48.498c0.182-0.182,0.346-0.374,0.511-0.566
			c2.188-1.871,3.579-4.645,3.579-7.749V139.228C266.199,133.595,261.632,129.029,256,129.029z"/>
	</g>
</g>
</svg>
