<?xml version="1.0" encoding="iso-8859-1"?>
<svg version="1.1" id="Layer_1" xmlns="http://www.w3.org/2000/svg" xmlns:xlink="http://www.w3.org/1999/xlink" x="0px" y="0px"
	 viewBox="0 0 512 512" style="enable-background:new 0 0 512 512;" xml:space="preserve">
<g>
	<g>
		<path d="M501.801,28.609H10.199C4.566,28.609,0,33.175,0,38.808v434.384c0,5.633,4.566,10.199,10.199,10.199h37.95
			c5.633,0,10.199-4.566,10.199-10.199v-84.384h395.303v84.384c0,5.633,4.567,10.199,10.199,10.199h37.95
			c5.632,0,10.199-4.566,10.199-10.199V38.808C512,33.175,507.433,28.609,501.801,28.609z M37.95,462.993H20.398v-74.185H37.95
			V462.993z M491.602,462.993H474.05v-74.185h17.552V462.993z M491.602,368.409H20.398v-90.533h471.203V368.409z M491.602,257.478
			H20.398V199.64h471.203V257.478z M98.634,179.242v-6.149c0-12.404,10.092-22.496,22.496-22.496h63.056
			c12.404,0,22.496,10.092,22.496,22.496v6.149H98.634z M305.317,179.242v-6.149c0-12.404,10.092-22.496,22.497-22.496h63.056
			c12.404,0,22.496,10.092,22.496,22.496v6.149h-0.001H305.317z M491.602,179.242h-57.838v-6.149
			c0-23.652-19.242-42.895-42.895-42.895h-63.056c-23.652,0-42.896,19.243-42.896,42.895v6.149H227.08v-6.149
			c0-23.652-19.243-42.895-42.895-42.895H121.13c-23.652,0-42.895,19.243-42.895,42.895v6.149H20.398V49.007h471.203V179.242z"/>
	</g>
</g>
</svg>
