<svg version="1" xmlns="http://www.w3.org/2000/svg" width="424" height="424" viewBox="0 0 318.000000 318.000000"><path d="M180.2 20.6c-3.6 2.5-2.7 5.9 4.2 16.3 16.1 24.1 22.8 46 22.7 74.1-.1 47.7-25.3 89.8-67.1 112.3-21.9 11.7-39.6 15.9-65 15.1-21.2-.5-20.4-.6-21.8 1.3-2.8 3.8-1.5 6.8 6.5 15.3 16.7 17.8 37.8 30.9 61.9 38.4 13.8 4.3 25.7 5.9 42.6 5.8 35-.2 69.2-14.1 95.7-38.6 7-6.6 19.3-22.5 24.8-32.1 13.1-23 18.6-44 18.5-70.5-.2-56.5-33.8-107.1-85.9-129.4-6.8-2.9-30.3-9.6-33.7-9.6-.6 0-2.2.7-3.4 1.6zm27 17.3c31.9 12.3 56.1 34.2 70.3 63.6 10.7 22.1 13 32.4 13 58 0 17.7-.2 19.8-2.9 30-17.8 68.7-85.7 110.1-154.6 94.3-9.6-2.2-23.9-7.6-32-12.1-11-6.1-28.2-18.9-27-20 .3-.2 5.7-.7 12-1.1 14.1-.7 17.1-1.2 28.5-4.2 54.3-14.4 93.8-58 103.6-114.4 1.9-10.5 1.6-34.3-.5-46-2.4-13.1-7.7-28.5-14.1-40.7-2.9-5.7-5-10.3-4.6-10.3.3 0 4.1 1.3 8.3 2.9z"/><path d="M169 229.1c-4.9 3.9-16.3 11.1-24.9 15.6-4.7 2.5-8.9 5-9.3 5.7-2.3 3.5 1 8.6 5.5 8.6 4.7 0 29.3-14.2 37-21.4 2.3-2.2 2.8-3.2 2.2-5.4-1.2-5.3-6.1-6.7-10.5-3.1zM116 254.7c-3 .8-6.3 2.2-7.2 3-4.3 3.9-.3 10.9 5.5 9.8 9.8-1.9 13.8-3.6 14.7-6.1 1.1-2.9 0-5.8-3-7.4-2.3-1.2-3.1-1.2-10 .7zM104.8 24.7c-.9 1-3.7 6-6.2 11-2.5 5.1-4.8 9.3-5.1 9.3-1.7 0-20.5 3.1-21.7 3.5-.9.4-2.1 1.8-2.7 3.2-1.5 3.3-.3 5.2 9 14.1l6.9 6.7-1.9 11c-2.1 12.2-1.6 15.1 2.8 16.2 1.9.5 5.1-.7 12.7-4.7l10.2-5.2 9.9 5.2c7.8 4.2 10.5 5.2 12.6 4.6 4.5-1.1 5-3.8 2.8-16.1l-1.9-11 8.4-8.1c8.6-8.3 9.6-10.3 6.9-14-1.1-1.7-3.6-2.5-12.9-3.9l-11.4-1.7-4.6-9.6c-2.6-5.2-5.4-10.1-6.4-10.8-2.4-1.9-5.6-1.7-7.4.3zm6.3 23.2c2.8 6.6 4.5 8 11.4 9.1 3.2.5 6 1.1 6.2 1.4.3.2-1.7 2.5-4.3 5l-4.7 4.6.7 7c.4 3.8.5 7 .1 7-.3 0-2.8-1.1-5.5-2.5-6.1-3.1-7.5-3.1-12.5 0-6.1 3.7-6.8 3.4-5.9-2.8 1.1-7.9.9-8.7-4.1-13.7l-4.7-4.8 6.3-1.1c7.3-1.2 8.8-2.4 11.9-9.1 1.3-2.8 2.5-5 2.6-5 .2 0 1.3 2.2 2.5 4.9zM47.4 107.7c-1 1-3.7 5.9-6 11-2.4 5.1-4.7 9.3-5.1 9.3-.4 0-5.1.7-10.3 1.5-5.2.8-9.8 1.5-10.3 1.5-1.6 0-4.7 4.1-4.7 6.2 0 1.4 2.9 5 8.4 10.4l8.5 8.2-2 11.1c-2.2 12.3-1.8 14.6 2.8 15.8 2.1.5 4.9-.5 12.8-4.7l10.1-5.3 10 5.3c7.9 4.2 10.6 5.2 12.7 4.6 4.3-1 4.8-3.9 2.6-16.2l-2-10.9 7.5-7.3c4.2-4 8-8.1 8.6-9.2 1.2-2.3-.2-6.5-2.6-7.4-1.3-.5-20.1-3.6-21.9-3.6-.3 0-2.6-4.2-5.1-9.3-2.5-5-5.3-10-6.2-11-1.9-2.2-5.6-2.2-7.8 0zm11.8 30.7c1.2.9 3.6 1.6 5.3 1.6 1.6 0 4 .3 5.3.7 2.3.6 2.2.7-2.3 5.3-5 5.1-5.2 5.7-4 14.3l.8 5.9-5.5-3.1c-6.6-3.7-7.5-3.8-13.8-.6-2.7 1.4-5.2 2.5-5.5 2.5-.4 0-.3-3.1.1-6.9l.6-6.9-4.6-5-4.7-5 2.8-.5c1.5-.3 4.4-.8 6.4-1.2 4.2-.6 5.7-2.2 8.9-8.9l2.3-4.9 2.8 5.6c1.6 3 3.9 6.3 5.1 7.1z"/></svg>