<svg id="Layer_1" data-name="Layer 1" xmlns="http://www.w3.org/2000/svg" viewBox="0 0 193.37 36.11"><defs><style>.cls-1{fill:#fff;}.cls-2{fill:#ffd966;}</style></defs><title>logo</title><path class="cls-1" d="M5.46,30.5a14.65,14.65,0,0,1-4.7-2l2.35-5.29a15.27,15.27,0,0,0,4,1.81,14.89,14.89,0,0,0,4.41.69q4.13,0,4.13-2.06A1.71,1.71,0,0,0,14.42,22a21.63,21.63,0,0,0-3.78-1.11,36.1,36.1,0,0,1-4.78-1.32,8,8,0,0,1-3.29-2.26,6.09,6.09,0,0,1-1.38-4.2A7.28,7.28,0,0,1,2.46,9,8.35,8.35,0,0,1,6.24,6a15.45,15.45,0,0,1,6.17-1.09,21.9,21.9,0,0,1,4.92.56A15,15,0,0,1,21.6,7.13l-2.21,5.32a14.65,14.65,0,0,0-7-2,5.82,5.82,0,0,0-3.12.64,1.89,1.89,0,0,0-1,1.64,1.62,1.62,0,0,0,1.15,1.52,20.9,20.9,0,0,0,3.73,1.05A35.21,35.21,0,0,1,18,16.66a8.29,8.29,0,0,1,3.29,2.25,6,6,0,0,1,1.39,4.18,7.09,7.09,0,0,1-1.27,4.12,8.66,8.66,0,0,1-3.79,2.95,15.32,15.32,0,0,1-6.16,1.1A23.27,23.27,0,0,1,5.46,30.5Z" transform="translate(-0.76 -1.66)"/><path class="cls-1" d="M29.78,29.78a9.7,9.7,0,0,1-5.39-8.87,9.67,9.67,0,0,1,5.37-8.81,12.45,12.45,0,0,1,5.7-1.28,12.56,12.56,0,0,1,5.72,1.28,9.58,9.58,0,0,1,3.94,3.59,9.77,9.77,0,0,1,1.41,5.22,9.87,9.87,0,0,1-1.41,5.25,9.65,9.65,0,0,1-3.94,3.62,12.32,12.32,0,0,1-5.72,1.3A12.21,12.21,0,0,1,29.78,29.78Zm8.65-5.41a4.89,4.89,0,0,0,1.15-3.46,4.78,4.78,0,0,0-1.15-3.4,4.2,4.2,0,0,0-5.94,0,4.78,4.78,0,0,0-1.16,3.4,4.89,4.89,0,0,0,1.16,3.46,4.15,4.15,0,0,0,5.94,0Z" transform="translate(-0.76 -1.66)"/><path class="cls-1" d="M81,13q2.16,2.17,2.16,6.55V30.76H76.31V20.66a4.85,4.85,0,0,0-.78-3,2.64,2.64,0,0,0-2.19-1,3.14,3.14,0,0,0-2.49,1.09A4.89,4.89,0,0,0,69.91,21v9.74H63V20.66q0-4-3-4a3.2,3.2,0,0,0-2.53,1.09A4.89,4.89,0,0,0,56.59,21v9.74H49.72V11.14h6.55v2.07a6.71,6.71,0,0,1,2.58-1.79,8.74,8.74,0,0,1,3.28-.6,8.6,8.6,0,0,1,3.69.76,6.39,6.39,0,0,1,2.64,2.31,7.78,7.78,0,0,1,2.93-2.28,9.33,9.33,0,0,1,3.87-.79A7.74,7.74,0,0,1,81,13Z" transform="translate(-0.76 -1.66)"/><path class="cls-1" d="M106.18,13q2.23,2.17,2.23,6.55V30.76h-6.88V20.66q0-4-3.22-4a3.69,3.69,0,0,0-2.84,1.16,5,5,0,0,0-1.07,3.48v9.48H87.53V11.14h6.55v2.14a7.71,7.71,0,0,1,2.75-1.83,9.35,9.35,0,0,1,3.47-.63A8,8,0,0,1,106.18,13Z" transform="translate(-0.76 -1.66)"/><path class="cls-1" d="M113.11,7.92A3.37,3.37,0,0,1,112,5.32a3.39,3.39,0,0,1,1.16-2.61,4.36,4.36,0,0,1,3-1,4.53,4.53,0,0,1,3,1,3.21,3.21,0,0,1,1.16,2.55,3.53,3.53,0,0,1-1.16,2.7,4.91,4.91,0,0,1-6.08,0Zm-.4,3.22h6.88V30.76h-6.88Z" transform="translate(-0.76 -1.66)"/><path class="cls-2" d="M141.24,12.07a9.11,9.11,0,0,1,3.48,3.54A10.85,10.85,0,0,1,146,21a10.82,10.82,0,0,1-1.28,5.34,9.11,9.11,0,0,1-3.48,3.54,9.56,9.56,0,0,1-4.86,1.25A7.33,7.33,0,0,1,130.91,29v8.76H124V11.14h6.55v2q1.92-2.28,5.79-2.28A9.56,9.56,0,0,1,141.24,12.07Zm-3.34,12.3A4.83,4.83,0,0,0,139.05,21a4.83,4.83,0,0,0-1.15-3.42,4.15,4.15,0,0,0-5.94,0A4.84,4.84,0,0,0,130.8,21,4.84,4.84,0,0,0,132,24.37a4.15,4.15,0,0,0,5.94,0Z" transform="translate(-0.76 -1.66)"/><path class="cls-2" d="M153.35,29.78A9.66,9.66,0,0,1,148,20.91a9.63,9.63,0,0,1,5.37-8.81,12.42,12.42,0,0,1,5.7-1.28,12.56,12.56,0,0,1,5.72,1.28,9.65,9.65,0,0,1,3.94,3.59,9.77,9.77,0,0,1,1.41,5.22,9.87,9.87,0,0,1-1.41,5.25,9.72,9.72,0,0,1-3.94,3.62,13.15,13.15,0,0,1-11.4,0ZM162,24.37a4.89,4.89,0,0,0,1.15-3.46,4.78,4.78,0,0,0-1.15-3.4,4.2,4.2,0,0,0-5.94,0,4.78,4.78,0,0,0-1.16,3.4,4.89,4.89,0,0,0,1.16,3.46,4.15,4.15,0,0,0,5.94,0Z" transform="translate(-0.76 -1.66)"/><path class="cls-2" d="M194.13,3.91V30.76h-6.55v-2a7.11,7.11,0,0,1-5.76,2.28,9.66,9.66,0,0,1-4.88-1.25,9,9,0,0,1-3.49-3.56,10.82,10.82,0,0,1-1.29-5.36,10.7,10.7,0,0,1,1.29-5.33,8.91,8.91,0,0,1,3.49-3.53,9.86,9.86,0,0,1,4.88-1.23,7.09,7.09,0,0,1,5.43,2V3.91ZM186.2,24.37a4.89,4.89,0,0,0,1.16-3.46,4.82,4.82,0,0,0-1.14-3.4,3.83,3.83,0,0,0-2.95-1.23,3.91,3.91,0,0,0-3,1.23,4.78,4.78,0,0,0-1.15,3.4,4.89,4.89,0,0,0,1.15,3.46,3.89,3.89,0,0,0,3,1.25A3.83,3.83,0,0,0,186.2,24.37Z" transform="translate(-0.76 -1.66)"/></svg>