<?xml version="1.0" encoding="utf-8"?>
<!-- Generator: Adobe Illustrator 22.0.1, SVG Export Plug-In . SVG Version: 6.00 Build 0)  -->
<svg version="1.1" id="Layer_1" xmlns="http://www.w3.org/2000/svg" xmlns:xlink="http://www.w3.org/1999/xlink" x="0px" y="0px"
	 viewBox="0 0 193.4 36.1" style="enable-background:new 0 0 193.4 36.1;" xml:space="preserve">
<style type="text/css">
	.st0{fill:#FFFFFF;}
	.st1{fill:#FAB032;}
</style>
<title>logo</title>
<path class="st0" d="M4.7,28.8c-1.7-0.4-3.3-1.1-4.7-2l2.3-5.3c1.2,0.8,2.6,1.4,4,1.8c1.4,0.5,2.9,0.7,4.4,0.7
	c2.8,0,4.1-0.7,4.1-2.1c0-0.8-0.5-1.4-1.2-1.6c-1.2-0.5-2.5-0.9-3.8-1.1c-1.6-0.3-3.2-0.8-4.8-1.3c-1.3-0.5-2.4-1.2-3.3-2.3
	c-1-1.2-1.5-2.7-1.4-4.2c0-1.5,0.4-2.9,1.3-4.1C2.6,6,4,4.9,5.5,4.3c2-0.8,4.1-1.2,6.2-1.1c1.7,0,3.3,0.2,4.9,0.6
	c1.5,0.3,2.9,0.9,4.3,1.7l-2.2,5.3c-2.1-1.2-4.5-1.9-7-2c-1.1-0.1-2.2,0.1-3.1,0.6c-0.6,0.3-1,1-1,1.6c0,0.7,0.5,1.3,1.1,1.5
	c1.2,0.5,2.5,0.8,3.7,1.1c1.6,0.3,3.3,0.8,4.9,1.4c1.3,0.5,2.4,1.2,3.3,2.2c1,1.2,1.5,2.7,1.4,4.2c0,1.5-0.4,2.9-1.3,4.1
	c-1,1.3-2.3,2.3-3.8,3c-2,0.8-4.1,1.2-6.2,1.1C8.7,29.6,6.7,29.4,4.7,28.8z"/>
<path class="st0" d="M29,28.1c-3.4-1.7-5.5-5.1-5.4-8.9c-0.1-3.7,2-7.2,5.4-8.8c1.8-0.9,3.7-1.3,5.7-1.3c2,0,3.9,0.4,5.7,1.3
	c1.6,0.8,3,2,3.9,3.6c1,1.6,1.4,3.4,1.4,5.2c0,1.8-0.5,3.7-1.4,5.2c-0.9,1.6-2.3,2.8-3.9,3.6c-1.8,0.9-3.7,1.3-5.7,1.3
	C32.7,29.5,30.8,29,29,28.1z M37.7,22.7c0.8-1,1.2-2.2,1.2-3.5c0.1-1.2-0.3-2.5-1.2-3.4c-1.6-1.6-4.3-1.6-5.9,0c0,0,0,0,0,0
	c-0.8,0.9-1.2,2.2-1.2,3.4c-0.1,1.3,0.3,2.5,1.2,3.5C33.3,24.4,36,24.4,37.7,22.7C37.6,22.8,37.6,22.7,37.7,22.7z"/>
<path class="st0" d="M80.2,11.3c1.4,1.4,2.2,3.6,2.2,6.5v11.2h-6.9V19c0.1-1.1-0.2-2.1-0.8-3c-0.5-0.7-1.3-1-2.2-1
	c-1,0-1.9,0.4-2.5,1.1c-0.7,0.9-1,2.1-0.9,3.2v9.7h-6.9V19c0-2.7-1-4-3-4c-1,0-1.9,0.4-2.5,1.1c-0.7,0.9-1,2.1-0.9,3.2v9.7H49V9.5
	h6.5v2.1c0.7-0.8,1.6-1.4,2.6-1.8c1-0.4,2.2-0.6,3.3-0.6c1.3,0,2.5,0.2,3.7,0.8c1.1,0.5,2,1.3,2.6,2.3c0.8-1,1.8-1.8,2.9-2.3
	c1.2-0.5,2.5-0.8,3.9-0.8C76.6,9.1,78.7,9.9,80.2,11.3z"/>
<path class="st0" d="M105.4,11.3c1.5,1.4,2.2,3.6,2.2,6.5v11.2h-6.9V19c0-2.7-1.1-4-3.2-4c-1.1,0-2.1,0.4-2.8,1.2
	c-0.8,1-1.2,2.2-1.1,3.5v9.5h-6.9V9.5h6.6v2.1c0.8-0.8,1.7-1.4,2.8-1.8c1.1-0.4,2.3-0.6,3.5-0.6C101.7,9.1,103.8,9.8,105.4,11.3z"/>
<path class="st0" d="M112.3,6.3c-0.7-0.7-1.1-1.6-1.1-2.6c0-1,0.4-2,1.2-2.6c0.8-0.7,1.9-1.1,3-1c1.1,0,2.2,0.3,3,1
	c0.8,0.6,1.2,1.6,1.2,2.6c0,1-0.4,2-1.2,2.7C116.6,7.7,114.1,7.7,112.3,6.3L112.3,6.3z M111.9,9.5h6.9v19.6h-6.9V9.5z"/>
<path class="st1" d="M140.5,10.4c1.5,0.8,2.7,2.1,3.5,3.5c0.9,1.7,1.3,3.5,1.3,5.4c0,1.9-0.4,3.7-1.3,5.3c-0.8,1.5-2,2.7-3.5,3.5
	c-1.5,0.8-3.2,1.3-4.9,1.2c-2,0.1-4-0.7-5.5-2.1v8.8h-6.9V9.5h6.6v2c1.3-1.5,3.2-2.3,5.8-2.3C137.3,9.2,139,9.6,140.5,10.4z
	 M137.1,22.7c0.8-0.9,1.2-2.1,1.1-3.4c0.1-1.2-0.3-2.5-1.1-3.4c-1.6-1.6-4.2-1.7-5.9-0.1c0,0,0,0-0.1,0.1c-0.8,0.9-1.2,2.2-1.2,3.4
	c0,1.2,0.4,2.4,1.2,3.4C132.8,24.4,135.5,24.4,137.1,22.7C137.1,22.8,137.2,22.7,137.1,22.7L137.1,22.7z"/>
<path class="st1" d="M152.6,28.1c-3.4-1.7-5.4-5.1-5.4-8.9c-0.1-3.7,2-7.2,5.4-8.8c1.8-0.9,3.7-1.3,5.7-1.3c2,0,3.9,0.4,5.7,1.3
	c1.6,0.8,3,2,3.9,3.6c1,1.6,1.4,3.4,1.4,5.2c0,1.8-0.5,3.7-1.4,5.2c-0.9,1.6-2.3,2.8-3.9,3.6C160.4,29.9,156.2,29.9,152.6,28.1
	L152.6,28.1z M161.2,22.7c0.8-1,1.2-2.2,1.1-3.5c0.1-1.2-0.3-2.5-1.1-3.4c-1.6-1.6-4.3-1.6-5.9,0c0,0,0,0,0,0
	c-0.8,0.9-1.2,2.2-1.2,3.4c-0.1,1.3,0.3,2.5,1.2,3.5C156.9,24.4,159.5,24.4,161.2,22.7C161.2,22.8,161.2,22.7,161.2,22.7z"/>
<path class="st1" d="M193.4,2.2v26.9h-6.6v-2c-1.5,1.6-3.6,2.4-5.8,2.3c-1.7,0-3.4-0.4-4.9-1.2c-1.5-0.8-2.7-2.1-3.5-3.6
	c-0.9-1.6-1.3-3.5-1.3-5.4c0-1.9,0.4-3.7,1.3-5.3c0.8-1.5,2-2.7,3.5-3.5c1.5-0.8,3.2-1.2,4.9-1.2c2-0.1,4,0.6,5.4,2V2.2H193.4z
	 M185.4,22.7c0.8-1,1.2-2.2,1.2-3.5c0.1-1.2-0.3-2.5-1.1-3.4c-0.8-0.8-1.8-1.3-2.9-1.2c-1.1,0-2.2,0.4-3,1.2
	c-0.8,0.9-1.2,2.2-1.1,3.4c-0.1,1.3,0.3,2.5,1.1,3.5c0.8,0.8,1.9,1.3,3,1.2C183.6,24,184.7,23.5,185.4,22.7z"/>
<g id="VwR52q.tif">
	
		<image style="overflow:visible;" width="1026" height="1148" id="Layer_0_1_" xlink:href="E979C8B17CFE44A6.png"  transform="matrix(0.1893 0 0 0.1707 8.000124e-02 -243)">
	</image>
</g>
</svg>
